<svg data-name="Layer 1" xmlns="http://www.w3.org/2000/svg" viewBox="0 0 300 33.43"><title>sample-logo-black</title><path d="M20.62 25a5.42 5.42 0 0 0-2-4.33q-2-1.68-6.92-3a21.9 21.9 0 0 1-8.08-3.48A7 7 0 0 1 .9 8.41 7.3 7.3 0 0 1 4 2.34 12.64 12.64 0 0 1 11.85 0 11.6 11.6 0 0 1 20 2.79a8.57 8.57 0 0 1 3 6.81l-.07.13h-2.51a6.91 6.91 0 0 0-2.31-5.36 9 9 0 0 0-6.26-2.1A9.6 9.6 0 0 0 5.75 4a5.32 5.32 0 0 0-2.2 4.33 5.06 5.06 0 0 0 2 4.1q2 1.64 7 2.89a20.3 20.3 0 0 1 8 3.62 7.43 7.43 0 0 1 2.73 6 7.25 7.25 0 0 1-3.18 6.18 13.51 13.51 0 0 1-8.1 2.31A14.83 14.83 0 0 1 3.52 31 7.81 7.81 0 0 1 0 23.86v-.13h2.5a6.2 6.2 0 0 0 2.83 5.61A12.06 12.06 0 0 0 12 31.15a10.53 10.53 0 0 0 6.24-1.69A5.25 5.25 0 0 0 20.62 25zm27.25-1.1H33L29.64 33h-2.77L39.21.47h2.52L54 33h-2.78zm-14-2.39H47L40.53 3.93h-.13zM63.38.47l11.94 28.61h.13L87.44.47H91V33h-2.69V18.61l.22-14.21h-.13L76.33 33h-1.86L62.42 4.49h-.13l.25 14.11V33h-2.66V.47zm39.68 18.99V33h-2.66V.47h11.18q5.11 0 7.91 2.6A9 9 0 0 1 122.3 10a9 9 0 0 1-2.8 6.92q-2.8 2.59-7.91 2.59zm0-2.28h8.52q4 0 6-2a7 7 0 0 0 2-5.14 7.14 7.14 0 0 0-2-5.19q-2-2.07-6-2.06h-8.52zm29.21 13.51h16.07V33H129.6V.47h2.68zm40.62-13.46h-15.65v13.46h17.92V33h-20.57V.47h20.46v2.27h-17.81V15h15.64zm19.36 9.93h14V33h-21.56V.47h7.56zm44.41-7.52a13.58 13.58 0 0 1-3.81 9.9 13.28 13.28 0 0 1-9.94 3.89 13.25 13.25 0 0 1-13.86-13.79v-5.85a13.55 13.55 0 0 1 3.83-9.89 14.68 14.68 0 0 1 19.94 0 13.53 13.53 0 0 1 3.84 9.89zm-7.52-5.89A9.4 9.4 0 0 0 227.5 8a6 6 0 0 0-9.31 0 9.48 9.48 0 0 0-1.62 5.72v5.89a9.49 9.49 0 0 0 1.64 5.76 5.48 5.48 0 0 0 4.7 2.23 5.36 5.36 0 0 0 4.6-2.23 9.53 9.53 0 0 0 1.63-5.76zm38.48 14.73a14 14 0 0 1-4.8 3.46 18.39 18.39 0 0 1-7.9 1.5 13.35 13.35 0 0 1-9.79-3.71 12.9 12.9 0 0 1-3.76-9.62v-6.79A13.1 13.1 0 0 1 245 3.73 12.69 12.69 0 0 1 254.49 0q6.27 0 9.4 2.9a11.7 11.7 0 0 1 3.55 7.92v.13h-7.08a6.74 6.74 0 0 0-1.66-3.86 5.31 5.31 0 0 0-3.92-1.29 5.1 5.1 0 0 0-4.24 2.09 8.59 8.59 0 0 0-1.61 5.39v6.83a8.72 8.72 0 0 0 1.58 5.46 5.28 5.28 0 0 0 4.44 2.06 12.54 12.54 0 0 0 3.26-.33 5.25 5.25 0 0 0 1.87-.89v-5.14h-5.11v-5h12.68zM300 19.64a13.58 13.58 0 0 1-3.81 9.9 13.28 13.28 0 0 1-9.94 3.89 13.25 13.25 0 0 1-13.86-13.79v-5.85a13.55 13.55 0 0 1 3.83-9.89 14.68 14.68 0 0 1 19.94 0 13.53 13.53 0 0 1 3.84 9.89zm-7.52-5.89A9.4 9.4 0 0 0 290.84 8a6 6 0 0 0-9.31 0 9.48 9.48 0 0 0-1.62 5.72v5.89a9.49 9.49 0 0 0 1.64 5.76 5.48 5.48 0 0 0 4.7 2.23 5.36 5.36 0 0 0 4.6-2.23 9.53 9.53 0 0 0 1.63-5.76z"/></svg>